<?xml version="1.0" standalone="no"?>
<!DOCTYPE svg PUBLIC "-//W3C//DTD SVG 20010904//EN"
 "http://www.w3.org/TR/2001/REC-SVG-20010904/DTD/svg10.dtd">
<svg version="1.0" xmlns="http://www.w3.org/2000/svg"
 width="358.000000pt" height="355.000000pt" viewBox="0 0 358.000000 355.000000"
 preserveAspectRatio="xMidYMid meet">

<g transform="translate(0.000000,355.000000) scale(0.100000,-0.100000)"
fill="#FF5858" stroke="none">
<path d="M1630 3433 c-47 -2 -98 -10 -115 -17 -16 -8 -50 -19 -75 -26 -146
-38 -189 -50 -229 -64 -34 -12 -52 -14 -80 -6 -46 13 -102 13 -82 1 7 -5 10
-14 7 -20 -11 -17 -36 -13 -36 5 0 14 -3 14 -15 4 -8 -7 -15 -21 -15 -31 0
-10 -6 -22 -13 -26 -7 -4 -19 -27 -27 -51 -9 -27 -23 -49 -39 -57 -32 -18
-216 -197 -293 -287 -50 -57 -63 -66 -100 -72 -103 -15 -143 -77 -118 -181 10
-43 11 -58 2 -67 -7 -7 -12 -19 -12 -27 0 -9 -7 -29 -16 -46 -94 -177 -144
-287 -144 -321 0 -35 -29 -107 -53 -132 -20 -21 -22 -35 -23 -143 -2 -118 -2
-119 -33 -154 -34 -39 -37 -50 -19 -61 6 -4 20 4 32 18 12 14 29 35 38 47 l18
21 45 -22 c51 -25 52 -28 79 -178 20 -107 20 -129 0 -151 -12 -13 -13 -22 -5
-38 23 -42 2 -121 -32 -121 -23 0 -122 -133 -123 -164 -1 -17 -7 -32 -13 -34
-18 -6 -13 -22 7 -19 9 1 19 -2 20 -8 2 -5 11 -22 20 -37 15 -25 15 -29 -3
-48 -20 -22 -14 -26 14 -10 14 7 27 0 62 -37 24 -25 61 -63 83 -83 38 -37 38
-38 21 -64 -18 -28 -6 -36 15 -11 9 11 16 13 23 6 7 -7 5 -16 -4 -27 -13 -16
-12 -17 11 -11 14 4 31 7 38 7 6 0 12 9 12 19 0 11 8 22 18 25 18 6 141 9 182
5 14 -2 34 0 46 4 16 6 33 -4 80 -50 89 -87 200 -180 236 -199 18 -10 53 -22
78 -29 41 -10 48 -17 84 -79 31 -55 36 -70 25 -77 -11 -6 -8 -9 9 -9 18 0 22
-6 22 -30 0 -16 5 -31 10 -31 6 -1 16 -2 23 -3 8 -1 12 -19 12 -56 0 -48 3
-55 21 -58 22 -3 84 52 84 75 0 7 -12 18 -27 24 -47 18 -56 29 -38 49 9 10 15
21 14 26 -4 22 2 34 16 34 19 0 19 10 -1 38 -14 21 -14 22 5 22 11 0 23 -4 26
-10 3 -5 19 -10 34 -10 19 0 34 -9 49 -30 13 -16 28 -27 36 -24 7 3 16 -2 20
-11 5 -14 8 -14 30 1 44 28 229 2 274 -39 15 -14 29 -17 53 -12 29 5 35 3 44
-17 6 -13 21 -24 34 -26 23 -4 24 -2 18 42 -6 44 -2 52 26 47 4 -1 21 6 38 14
41 21 65 11 90 -36 24 -49 44 -46 44 6 0 31 5 42 24 51 13 7 26 16 30 21 13
20 73 55 123 73 29 10 72 28 96 40 24 12 60 22 80 24 20 2 36 8 35 14 -1 6 53
47 120 92 101 68 127 80 151 76 23 -5 27 -3 22 10 -9 23 7 44 134 174 62 63
127 140 144 170 50 87 164 341 171 382 10 51 24 61 61 42 l29 -15 -31 31 -31
32 14 71 c8 40 21 105 29 144 9 43 22 76 31 81 24 14 27 104 4 128 -39 43 -49
72 -61 184 -7 68 -20 131 -31 156 -10 22 -19 45 -19 52 0 13 -27 98 -40 127
-5 11 -19 45 -30 75 -11 30 -36 82 -55 115 -19 33 -55 101 -80 151 -46 93 -69
120 -185 209 -29 22 -77 63 -107 90 -52 48 -106 85 -203 140 -56 31 -78 44
-111 66 -14 10 -46 23 -70 29 -24 6 -69 20 -99 31 -159 59 -442 92 -690 82z
m165 -181 c6 -4 23 -24 38 -44 36 -49 67 -50 118 -3 43 39 85 46 97 16 11 -29
146 -139 199 -163 34 -15 71 -22 128 -23 99 -2 154 -23 269 -100 104 -70 194
-163 277 -288 l61 -91 -8 -56 c-4 -30 -7 -63 -6 -74 1 -24 29 -54 71 -76 29
-15 36 -26 51 -81 10 -35 25 -91 34 -124 24 -86 39 -264 33 -375 -10 -153 -75
-377 -162 -550 -91 -182 -224 -353 -330 -424 -22 -14 -78 -53 -125 -87 -77
-54 -112 -74 -205 -114 -16 -7 -53 -15 -80 -18 -28 -3 -71 -13 -95 -21 -25 -9
-64 -16 -87 -16 -39 0 -43 2 -43 24 0 25 -22 51 -33 39 -4 -3 -7 -14 -7 -22 0
-9 -9 -22 -21 -29 -19 -12 -24 -11 -46 10 -18 16 -27 19 -30 11 -3 -10 -10
-10 -24 -2 -15 7 -21 6 -25 -6 -9 -22 -24 -19 -24 5 0 20 -14 27 -24 12 -2 -4
-77 -7 -166 -7 -89 0 -164 -3 -166 -7 -3 -5 -10 -6 -15 -3 -5 4 -28 8 -51 11
-70 7 -86 13 -202 69 -63 30 -137 75 -171 104 -33 28 -80 65 -105 82 -230 165
-403 436 -471 737 -20 92 -30 200 -30 345 0 182 15 239 105 389 60 99 65 104
131 138 39 20 81 51 99 73 l31 39 0 134 c0 75 4 137 10 143 7 7 44 7 105 2 66
-5 106 -4 130 4 19 7 74 12 122 13 l88 1 35 -37 c20 -20 47 -49 61 -64 l27
-28 -224 0 -223 0 36 -37 c20 -21 80 -110 133 -198 134 -222 192 -340 462
-927 l36 -78 -6 -302 c-3 -167 -8 -311 -12 -321 -7 -16 7 -17 200 -17 l207 0
-6 28 c-3 15 -9 149 -12 297 -8 315 -13 289 109 551 307 657 425 882 510 972
l31 32 -225 0 -225 0 -26 -57 c-15 -32 -91 -197 -171 -368 -79 -170 -149 -325
-156 -342 -8 -18 -19 -33 -25 -33 -6 1 -46 76 -88 168 -167 361 -298 628 -321
652 -47 50 -61 114 -27 123 12 3 20 14 20 26 0 36 47 116 84 145 20 15 48 49
61 77 27 52 33 56 54 37 10 -11 22 -3 61 40 26 29 60 57 76 62 37 11 86 12 99
2z"/>
<path d="M1437 2855 c-3 -11 -8 -36 -11 -55 -5 -30 -3 -29 9 10 8 25 14 49 12
55 -2 5 -6 1 -10 -10z"/>
<path d="M135 880 c-3 -5 -2 -10 4 -10 5 0 13 5 16 10 3 6 2 10 -4 10 -5 0
-13 -4 -16 -10z"/>
</g>
</svg>
